{
    "asset" : {
        "generator" : "Khronos glTF Blender I/O v1.3.48",
        "version" : "2.0"
    },
    "extensionsUsed" : [
        "KHR_lights_punctual"
    ],
    "extensionsRequired" : [
        "KHR_lights_punctual"
    ],
    "extensions" : {
        "KHR_lights_punctual" : {
            "lights" : [
                {
                    "color" : [
                        1,
                        0.9908081293106079,
                        0.6709774136543274
                    ],
                    "intensity" : 2,
                    "type" : "directional",
                    "name" : "Light",
                    "extras" : {
                        "castShadow" : 1,
                        "shadowMapSize" : 512,
                        "shadowBias" : -0.05000000074505806,
                        "shadowDistance" : 50,
                        "radius" : 15
                    }
                }
            ]
        }
    },
    "scene" : 0,
    "scenes" : [
        {
            "extras" : {
                "glTF2ExportSettings" : {
                    "export_animations" : 0,
                    "export_apply" : 1,
                    "export_colors" : 0,
                    "export_extras" : 1,
                    "export_format" : "GLTF_SEPARATE",
                    "export_lights" : 1,
                    "export_morph" : 0,
                    "export_skins" : 0,
                    "use_selection" : 1
                }
            },
            "name" : "Scene",
            "nodes" : [
                0,
                2,
                3,
                4,
                5,
                6,
                7,
                8,
                9,
                10,
                11,
                12,
                13,
                14,
                15,
                16,
                17,
                18,
                19,
                20,
                21,
                22,
                23,
                24,
                25,
                26
            ]
        }
    ],
    "nodes" : [
        {
            "name" : "Camera",
            "rotation" : [
                0.483536034822464,
                0.33687159419059753,
                -0.20870360732078552,
                0.7804827094078064
            ],
            "translation" : [
                7.358891487121582,
                4.958309173583984,
                6.925790786743164
            ]
        },
        {
            "extensions" : {
                "KHR_lights_punctual" : {
                    "light" : 0
                }
            },
            "name" : "Light_Orientation",
            "rotation" : [
                -0.7071067690849304,
                0,
                0,
                0.7071067690849304
            ]
        },
        {
            "children" : [
                1
            ],
            "name" : "Light",
            "rotation" : [
                0.16907575726509094,
                0.7558803558349609,
                -0.27217137813568115,
                0.570947527885437
            ],
            "translation" : [
                8.607391357421875,
                12.261240005493164,
                -2.7525835037231445
            ]
        },
        {
            "extras" : {
                "clippingStart" : 0.009999999776482582,
                "clippingEnd" : 40,
                "influenceDist" : 0.30000001192092896,
                "extType" : "irradianceVolume",
                "resolutionX" : 3,
                "resolutionY" : 1,
                "resolutionZ" : 3
            },
            "name" : "IrradianceVolume",
            "scale" : [
                12,
                1,
                12
            ],
            "translation" : [
                0,
                1,
                0
            ]
        },
        {
            "extras" : {
                "clippingStart" : 0.800000011920929,
                "clippingEnd" : 20,
                "influenceDist" : 20.19999885559082,
                "extType" : "environmentProbe"
            },
            "name" : "ReflectionCubemap",
            "translation" : [
                0,
                1,
                0
            ]
        },
        {
            "mesh" : 0,
            "name" : "Ground"
        },
        {
            "mesh" : 1,
            "name" : "Cube",
            "translation" : [
                -11,
                0,
                0
            ]
        },
        {
            "mesh" : 1,
            "name" : "Cube.001",
            "translation" : [
                10,
                0,
                0
            ]
        },
        {
            "mesh" : 1,
            "name" : "Cube.002",
            "rotation" : [
                0,
                0.7071068286895752,
                0,
                0.7071068286895752
            ],
            "translation" : [
                0,
                0,
                11
            ]
        },
        {
            "mesh" : 1,
            "name" : "Cube.003",
            "rotation" : [
                0,
                0.7071068286895752,
                0,
                0.7071068286895752
            ],
            "translation" : [
                0,
                0,
                -10
            ]
        },
        {
            "mesh" : 2,
            "name" : "Cube.004",
            "translation" : [
                0,
                1,
                5
            ]
        },
        {
            "mesh" : 3,
            "name" : "Cube.005",
            "translation" : [
                3,
                1,
                3
            ]
        },
        {
            "mesh" : 4,
            "name" : "Cube.006",
            "translation" : [
                3,
                1,
                2
            ]
        },
        {
            "mesh" : 5,
            "name" : "Cube.007",
            "translation" : [
                3,
                1,
                1
            ]
        },
        {
            "mesh" : 6,
            "name" : "Cylinder",
            "translation" : [
                6,
                0.5,
                -6
            ]
        },
        {
            "extras" : {
                "extType" : "collider",
                "colliderShape" : "box"
            },
            "name" : "Empty",
            "scale" : [
                11,
                2,
                0.5
            ],
            "translation" : [
                0,
                1,
                -10.5
            ]
        },
        {
            "extras" : {
                "extType" : "collider",
                "colliderShape" : "box"
            },
            "name" : "Empty.002",
            "rotation" : [
                0,
                0.7071068286895752,
                0,
                0.7071068286895752
            ],
            "scale" : [
                11,
                2,
                0.5
            ],
            "translation" : [
                -10.5,
                1,
                0
            ]
        },
        {
            "extras" : {
                "extType" : "collider",
                "colliderShape" : "box"
            },
            "name" : "Empty.003",
            "rotation" : [
                0,
                0.7071068286895752,
                0,
                0.7071068286895752
            ],
            "scale" : [
                11,
                2,
                0.5
            ],
            "translation" : [
                10.5,
                1,
                0
            ]
        },
        {
            "extras" : {
                "extType" : "collider",
                "colliderShape" : "box"
            },
            "name" : "Empty.001",
            "scale" : [
                11,
                2,
                0.5
            ],
            "translation" : [
                0,
                1,
                10.5
            ]
        },
        {
            "extras" : {
                "extType" : "collider",
                "colliderShape" : "box"
            },
            "name" : "Empty.004",
            "scale" : [
                11,
                0.5,
                11
            ],
            "translation" : [
                0,
                -0.5,
                0
            ]
        },
        {
            "extras" : {
                "extType" : "collider",
                "colliderShape" : "box"
            },
            "name" : "Empty.005",
            "scale" : [
                5,
                1,
                1
            ],
            "translation" : [
                -1,
                1,
                5
            ]
        },
        {
            "extras" : {
                "extType" : "collider",
                "colliderShape" : "box"
            },
            "name" : "Empty.006",
            "rotation" : [
                0,
                0.7071068286895752,
                0,
                0.7071068286895752
            ],
            "scale" : [
                3.5,
                1,
                1
            ],
            "translation" : [
                -5,
                1,
                0.5
            ]
        },
        {
            "extras" : {
                "extType" : "collider",
                "colliderShape" : "box"
            },
            "name" : "Empty.007",
            "rotation" : [
                0,
                0.7071068286895752,
                0,
                0.7071068286895752
            ],
            "scale" : [
                0.5,
                0.75,
                1
            ],
            "translation" : [
                3,
                0.75,
                3.5
            ]
        },
        {
            "extras" : {
                "extType" : "collider",
                "colliderShape" : "box"
            },
            "name" : "Empty.008",
            "rotation" : [
                0,
                0.7071068286895752,
                0,
                0.7071068286895752
            ],
            "scale" : [
                0.5,
                0.5,
                1
            ],
            "translation" : [
                3,
                0.5,
                2.5
            ]
        },
        {
            "extras" : {
                "extType" : "collider",
                "colliderShape" : "box"
            },
            "name" : "Empty.009",
            "rotation" : [
                0,
                0.7071068286895752,
                0,
                0.7071068286895752
            ],
            "scale" : [
                0.5,
                0.25,
                1
            ],
            "translation" : [
                3,
                0.25,
                1.5
            ]
        },
        {
            "extras" : {
                "extType" : "collider",
                "colliderShape" : "box"
            },
            "name" : "Empty.010",
            "rotation" : [
                -0.2053246796131134,
                0.6766401529312134,
                -0.2053246945142746,
                0.6766400933265686
            ],
            "scale" : [
                1.7999999523162842,
                0.5,
                1
            ],
            "translation" : [
                -5,
                0.5829276442527771,
                -4.2236104011535645
            ]
        },
        {
            "extras" : {
                "extType" : "collider",
                "colliderShape" : "cylinder"
            },
            "name" : "Empty.011",
            "scale" : [
                2,
                0.5,
                2
            ],
            "translation" : [
                6,
                0.5,
                -6
            ]
        }
    ],
    "materials" : [
        {
            "emissiveFactor" : [
                0,
                0,
                0
            ],
            "name" : "Material.Checkers",
            "pbrMetallicRoughness" : {
                "baseColorTexture" : {
                    "index" : 0,
                    "texCoord" : 0
                },
                "metallicFactor" : 0,
                "roughnessFactor" : 0.4000000059604645
            }
        },
        {
            "emissiveFactor" : [
                0,
                0,
                0
            ],
            "name" : "Material.Gray",
            "pbrMetallicRoughness" : {
                "baseColorFactor" : [
                    0.42002400755882263,
                    0.42002400755882263,
                    0.42002400755882263,
                    1
                ],
                "metallicFactor" : 0,
                "roughnessFactor" : 0.5
            }
        }
    ],
    "meshes" : [
        {
            "name" : "Cube",
            "primitives" : [
                {
                    "attributes" : {
                        "POSITION" : 0,
                        "NORMAL" : 1,
                        "TEXCOORD_0" : 2
                    },
                    "indices" : 3,
                    "material" : 0
                }
            ]
        },
        {
            "name" : "Cube.001",
            "primitives" : [
                {
                    "attributes" : {
                        "POSITION" : 4,
                        "NORMAL" : 5,
                        "TEXCOORD_0" : 6
                    },
                    "indices" : 3,
                    "material" : 0
                }
            ]
        },
        {
            "name" : "Cube.002",
            "primitives" : [
                {
                    "attributes" : {
                        "POSITION" : 7,
                        "NORMAL" : 8,
                        "TEXCOORD_0" : 9
                    },
                    "indices" : 10,
                    "material" : 1
                }
            ]
        },
        {
            "name" : "Cube.003",
            "primitives" : [
                {
                    "attributes" : {
                        "POSITION" : 11,
                        "NORMAL" : 12,
                        "TEXCOORD_0" : 13
                    },
                    "indices" : 3,
                    "material" : 1
                }
            ]
        },
        {
            "name" : "Cube.004",
            "primitives" : [
                {
                    "attributes" : {
                        "POSITION" : 14,
                        "NORMAL" : 15,
                        "TEXCOORD_0" : 16
                    },
                    "indices" : 3,
                    "material" : 1
                }
            ]
        },
        {
            "name" : "Cube.005",
            "primitives" : [
                {
                    "attributes" : {
                        "POSITION" : 17,
                        "NORMAL" : 18,
                        "TEXCOORD_0" : 19
                    },
                    "indices" : 3,
                    "material" : 1
                }
            ]
        },
        {
            "name" : "Cylinder",
            "primitives" : [
                {
                    "attributes" : {
                        "POSITION" : 20,
                        "NORMAL" : 21,
                        "TEXCOORD_0" : 22
                    },
                    "indices" : 23,
                    "material" : 1
                }
            ]
        }
    ],
    "textures" : [
        {
            "source" : 0
        }
    ],
    "images" : [
        {
            "mimeType" : "image/jpeg",
            "name" : "UV_Grid_Lrg",
            "uri" : "UV_Grid_Lrg.jpg"
        }
    ],
    "accessors" : [
        {
            "bufferView" : 0,
            "componentType" : 5126,
            "count" : 24,
            "max" : [
                10,
                0,
                10
            ],
            "min" : [
                -10,
                -1,
                -10
            ],
            "type" : "VEC3"
        },
        {
            "bufferView" : 1,
            "componentType" : 5126,
            "count" : 24,
            "type" : "VEC3"
        },
        {
            "bufferView" : 2,
            "componentType" : 5126,
            "count" : 24,
            "type" : "VEC2"
        },
        {
            "bufferView" : 3,
            "componentType" : 5123,
            "count" : 36,
            "type" : "SCALAR"
        },
        {
            "bufferView" : 4,
            "componentType" : 5126,
            "count" : 24,
            "max" : [
                1,
                3,
                11
            ],
            "min" : [
                0,
                -1,
                -11
            ],
            "type" : "VEC3"
        },
        {
            "bufferView" : 5,
            "componentType" : 5126,
            "count" : 24,
            "type" : "VEC3"
        },
        {
            "bufferView" : 6,
            "componentType" : 5126,
            "count" : 24,
            "type" : "VEC2"
        },
        {
            "bufferView" : 7,
            "componentType" : 5126,
            "count" : 54,
            "max" : [
                4,
                1,
                1
            ],
            "min" : [
                -6,
                -1,
                -11
            ],
            "type" : "VEC3"
        },
        {
            "bufferView" : 8,
            "componentType" : 5126,
            "count" : 54,
            "type" : "VEC3"
        },
        {
            "bufferView" : 9,
            "componentType" : 5126,
            "count" : 54,
            "type" : "VEC2"
        },
        {
            "bufferView" : 10,
            "componentType" : 5123,
            "count" : 108,
            "type" : "SCALAR"
        },
        {
            "bufferView" : 11,
            "componentType" : 5126,
            "count" : 24,
            "max" : [
                1,
                0.5,
                1
            ],
            "min" : [
                -1,
                -1,
                0
            ],
            "type" : "VEC3"
        },
        {
            "bufferView" : 12,
            "componentType" : 5126,
            "count" : 24,
            "type" : "VEC3"
        },
        {
            "bufferView" : 13,
            "componentType" : 5126,
            "count" : 24,
            "type" : "VEC2"
        },
        {
            "bufferView" : 14,
            "componentType" : 5126,
            "count" : 24,
            "max" : [
                1,
                0,
                1
            ],
            "min" : [
                -1,
                -1,
                0
            ],
            "type" : "VEC3"
        },
        {
            "bufferView" : 15,
            "componentType" : 5126,
            "count" : 24,
            "type" : "VEC3"
        },
        {
            "bufferView" : 16,
            "componentType" : 5126,
            "count" : 24,
            "type" : "VEC2"
        },
        {
            "bufferView" : 17,
            "componentType" : 5126,
            "count" : 24,
            "max" : [
                1,
                -0.5,
                1
            ],
            "min" : [
                -1,
                -1,
                0
            ],
            "type" : "VEC3"
        },
        {
            "bufferView" : 18,
            "componentType" : 5126,
            "count" : 24,
            "type" : "VEC3"
        },
        {
            "bufferView" : 19,
            "componentType" : 5126,
            "count" : 24,
            "type" : "VEC2"
        },
        {
            "bufferView" : 20,
            "componentType" : 5126,
            "count" : 192,
            "max" : [
                2,
                0.5,
                2
            ],
            "min" : [
                -2,
                -0.5,
                -2
            ],
            "type" : "VEC3"
        },
        {
            "bufferView" : 21,
            "componentType" : 5126,
            "count" : 192,
            "type" : "VEC3"
        },
        {
            "bufferView" : 22,
            "componentType" : 5126,
            "count" : 192,
            "type" : "VEC2"
        },
        {
            "bufferView" : 23,
            "componentType" : 5123,
            "count" : 372,
            "type" : "SCALAR"
        }
    ],
    "bufferViews" : [
        {
            "buffer" : 0,
            "byteLength" : 288,
            "byteOffset" : 0
        },
        {
            "buffer" : 0,
            "byteLength" : 288,
            "byteOffset" : 288
        },
        {
            "buffer" : 0,
            "byteLength" : 192,
            "byteOffset" : 576
        },
        {
            "buffer" : 0,
            "byteLength" : 72,
            "byteOffset" : 768
        },
        {
            "buffer" : 0,
            "byteLength" : 288,
            "byteOffset" : 840
        },
        {
            "buffer" : 0,
            "byteLength" : 288,
            "byteOffset" : 1128
        },
        {
            "buffer" : 0,
            "byteLength" : 192,
            "byteOffset" : 1416
        },
        {
            "buffer" : 0,
            "byteLength" : 648,
            "byteOffset" : 1608
        },
        {
            "buffer" : 0,
            "byteLength" : 648,
            "byteOffset" : 2256
        },
        {
            "buffer" : 0,
            "byteLength" : 432,
            "byteOffset" : 2904
        },
        {
            "buffer" : 0,
            "byteLength" : 216,
            "byteOffset" : 3336
        },
        {
            "buffer" : 0,
            "byteLength" : 288,
            "byteOffset" : 3552
        },
        {
            "buffer" : 0,
            "byteLength" : 288,
            "byteOffset" : 3840
        },
        {
            "buffer" : 0,
            "byteLength" : 192,
            "byteOffset" : 4128
        },
        {
            "buffer" : 0,
            "byteLength" : 288,
            "byteOffset" : 4320
        },
        {
            "buffer" : 0,
            "byteLength" : 288,
            "byteOffset" : 4608
        },
        {
            "buffer" : 0,
            "byteLength" : 192,
            "byteOffset" : 4896
        },
        {
            "buffer" : 0,
            "byteLength" : 288,
            "byteOffset" : 5088
        },
        {
            "buffer" : 0,
            "byteLength" : 288,
            "byteOffset" : 5376
        },
        {
            "buffer" : 0,
            "byteLength" : 192,
            "byteOffset" : 5664
        },
        {
            "buffer" : 0,
            "byteLength" : 2304,
            "byteOffset" : 5856
        },
        {
            "buffer" : 0,
            "byteLength" : 2304,
            "byteOffset" : 8160
        },
        {
            "buffer" : 0,
            "byteLength" : 1536,
            "byteOffset" : 10464
        },
        {
            "buffer" : 0,
            "byteLength" : 744,
            "byteOffset" : 12000
        }
    ],
    "buffers" : [
        {
            "byteLength" : 12744,
            "uri" : "TestLevel.bin"
        }
    ]
}
